# Blender v2.78 (sub 0) OBJ File: ''
# www.blender.org
mtllib s11enemy.mtl
v -0.131496 -0.404703 0.904944
v -0.344261 -0.250121 0.904944
v -0.557026 -0.319252 0.766681
v -0.557026 -0.542967 0.628418
v -0.344261 -0.697550 0.628418
v -0.131496 -0.628418 0.766681
v 0.131496 -0.628418 0.766681
v 0.131496 -0.404703 0.904944
v 0.344261 -0.250121 0.904944
v 0.425530 -0.000000 0.904944
v 0.344261 0.250120 0.904944
v 0.131496 0.404703 0.904944
v -0.131496 0.404703 0.904944
v -0.344261 0.250120 0.904944
v -0.425530 -0.000000 0.904944
v -0.638295 -0.069132 0.766681
v -0.475757 0.431109 0.766681
v -0.688522 0.361978 0.628418
v -0.769791 0.111857 0.628418
v -0.262992 0.585692 0.766681
v 0.262992 0.585692 0.766681
v 0.131496 0.766681 0.628418
v -0.131496 0.766681 0.628418
v 0.475757 0.431109 0.766681
v 0.638295 -0.069132 0.766681
v 0.769791 0.111857 0.628418
v 0.688522 0.361978 0.628418
v 0.557026 -0.319252 0.766681
v 0.344261 -0.697550 0.628418
v 0.557026 -0.542967 0.628418
v -0.425530 -0.809407 0.404703
v -0.344261 -0.921264 0.180989
v -0.131496 -0.990395 0.042725
v 0.131496 -0.990395 0.042725
v 0.344261 -0.921264 0.180989
v 0.425530 -0.809407 0.404703
v -0.638295 -0.654824 0.404703
v -0.769791 -0.612098 0.180989
v -0.688522 -0.723955 -0.042726
v -0.475757 -0.878538 -0.042726
v -0.262992 -0.947670 -0.180989
v -0.131496 -0.904944 -0.404703
v 0.131496 -0.904944 -0.404703
v 0.262992 -0.947670 -0.180989
v 0.475757 -0.878538 -0.042726
v 0.688522 -0.723955 -0.042726
v 0.769791 -0.612098 0.180989
v 0.638295 -0.654824 0.404703
v -0.901288 0.154583 0.404703
v -0.982557 0.042726 0.180989
v -0.982557 -0.180989 0.042726
v -0.901288 -0.431109 0.042726
v -0.820018 0.404703 0.404703
v -0.820018 0.542966 0.180989
v -0.901288 0.431109 -0.042726
v -0.982557 0.180989 -0.042726
v -0.982557 -0.042726 -0.180989
v -0.901288 -0.154583 -0.404703
v -0.820018 -0.404703 -0.404703
v -0.820018 -0.542966 -0.180989
v -0.131496 0.904944 0.404703
v -0.262992 0.947670 0.180989
v -0.475757 0.878538 0.042726
v -0.688522 0.723955 0.042726
v -0.769791 0.612098 -0.180989
v 0.131496 0.904944 0.404703
v 0.262992 0.947670 0.180989
v 0.131496 0.990395 -0.042726
v -0.131496 0.990395 -0.042726
v -0.344261 0.921264 -0.180989
v -0.425530 0.809407 -0.404703
v -0.638295 0.654824 -0.404703
v 0.475757 0.878538 0.042726
v 0.820019 0.404703 0.404703
v 0.820019 0.542966 0.180989
v 0.688522 0.723955 0.042726
v 0.769791 0.612098 -0.180989
v 0.638295 0.654824 -0.404703
v 0.425530 0.809407 -0.404703
v 0.344261 0.921264 -0.180989
v 0.901287 0.154583 0.404703
v 0.982556 0.042726 0.180989
v 0.982556 0.180989 -0.042726
v 0.901287 0.431109 -0.042726
v 0.901288 -0.431109 0.042726
v 0.982557 -0.180989 0.042726
v 0.820019 -0.542966 -0.180989
v 0.820018 -0.404703 -0.404703
v 0.901287 -0.154583 -0.404703
v 0.982556 -0.042726 -0.180989
v -0.688522 -0.361978 -0.628418
v -0.475757 -0.431109 -0.766681
v -0.262992 -0.585692 -0.766681
v -0.131496 -0.766681 -0.628418
v -0.769791 -0.111857 -0.628418
v -0.638295 0.069132 -0.766681
v -0.425530 0.000000 -0.904944
v -0.344261 -0.250120 -0.904944
v -0.131496 -0.404703 -0.904944
v 0.131496 -0.404703 -0.904944
v 0.262992 -0.585692 -0.766681
v 0.131496 -0.766681 -0.628418
v -0.557026 0.542967 -0.628418
v -0.557026 0.319252 -0.766681
v -0.344261 0.697550 -0.628418
v -0.131496 0.628418 -0.766681
v -0.131496 0.404703 -0.904944
v -0.344261 0.250121 -0.904944
v 0.344261 0.697550 -0.628418
v 0.131496 0.628418 -0.766681
v 0.131496 0.404703 -0.904944
v 0.557026 0.542967 -0.628418
v 0.557026 0.319252 -0.766681
v 0.344261 0.250121 -0.904944
v 0.769792 -0.111857 -0.628418
v 0.638295 0.069132 -0.766681
v 0.688522 -0.361977 -0.628417
v 0.475757 -0.431109 -0.766680
v 0.344261 -0.250120 -0.904943
v 0.425530 0.000000 -0.904944
vn -0.3568 -0.4911 0.7947
vn 0.0000 -0.5257 0.8507
vn -0.5000 -0.1625 0.8507
vn -0.5774 0.1876 0.7947
vn -0.3090 0.4253 0.8507
vn 0.0000 0.6071 0.7947
vn 0.3090 0.4253 0.8507
vn 0.5774 0.1876 0.7947
vn 0.5000 -0.1625 0.8507
vn 0.3568 -0.4911 0.7947
vn -0.5000 -0.6882 0.5257
vn -0.5774 -0.7947 0.1876
vn -0.3090 -0.9511 -0.0000
vn 0.0000 -0.9822 -0.1876
vn 0.3090 -0.9511 -0.0000
vn 0.5774 -0.7947 0.1876
vn 0.5000 -0.6882 0.5257
vn -0.8090 0.2629 0.5257
vn -0.9342 0.3035 0.1876
vn -1.0000 0.0000 0.0000
vn -0.9342 -0.3035 -0.1876
vn -0.8090 -0.5878 0.0000
vn -0.8090 0.5878 0.0000
vn 0.0000 0.8507 0.5257
vn 0.0000 0.9822 0.1876
vn -0.3090 0.9511 -0.0000
vn -0.5774 0.7947 -0.1876
vn 0.5774 0.7947 -0.1876
vn 0.3090 0.9511 0.0000
vn 0.8090 0.2629 0.5257
vn 0.9342 0.3035 0.1876
vn 0.8090 0.5878 0.0000
vn 0.8090 -0.5878 0.0000
vn 0.9342 -0.3035 -0.1876
vn 1.0000 0.0000 -0.0000
vn -0.8090 -0.2629 -0.5257
vn -0.5774 -0.1876 -0.7947
vn -0.3090 -0.4253 -0.8507
vn -0.0000 -0.6071 -0.7947
vn 0.0000 -0.8507 -0.5257
vn -0.5000 0.6882 -0.5257
vn -0.3568 0.4911 -0.7947
vn -0.5000 0.1625 -0.8507
vn 0.0000 0.5257 -0.8507
vn 0.5000 0.6882 -0.5257
vn 0.3568 0.4911 -0.7947
vn 0.8090 -0.2629 -0.5257
vn 0.5773 -0.1876 -0.7947
vn 0.5000 0.1625 -0.8507
vn 0.3090 -0.4253 -0.8507
vn 0.5773 0.1876 0.7947
vn 0.5774 -0.1876 -0.7947
vn -0.0000 -0.0000 1.0000
vn 0.0000 -0.8944 0.4472
vn -0.8507 -0.2764 0.4472
vn -0.5257 0.7236 0.4472
vn 0.5257 0.7236 0.4472
vn 0.8507 -0.2764 0.4472
vn -0.5257 -0.7236 -0.4472
vn -0.8507 0.2764 -0.4472
vn -0.0000 0.8944 -0.4472
vn 0.8507 0.2764 -0.4472
vn 0.5257 -0.7236 -0.4472
vn 0.0000 0.0000 -1.0000
usemtl Material.004
s off
f 2//1 4//1 6//1
f 6//2 8//2 1//2
f 15//3 3//3 2//3
f 14//4 19//4 16//4
f 13//5 17//5 14//5
f 21//6 22//6 20//6
f 12//7 24//7 21//7
f 10//8 26//8 24//8
f 10//9 28//9 25//9
f 8//10 30//10 28//10
f 4//11 31//11 5//11
f 37//12 39//12 31//12
f 40//13 33//13 32//13
f 41//14 43//14 34//14
f 44//15 35//15 34//15
f 45//16 47//16 35//16
f 48//17 29//17 36//17
f 18//18 49//18 19//18
f 53//19 55//19 50//19
f 56//20 51//20 50//20
f 57//21 59//21 52//21
f 60//22 38//22 52//22
f 54//23 65//23 55//23
f 22//24 61//24 23//24
f 66//25 68//25 62//25
f 62//26 70//26 63//26
f 70//27 72//27 64//27
f 76//28 78//28 80//28
f 80//29 67//29 73//29
f 26//30 74//30 27//30
f 81//31 83//31 75//31
f 75//32 77//32 76//32
f 46//33 85//33 47//33
f 87//34 89//34 85//34
f 90//35 82//35 86//35
f 59//36 95//36 91//36
f 95//37 97//37 92//37
f 98//38 93//38 92//38
f 99//39 101//39 94//39
f 102//40 42//40 94//40
f 71//41 103//41 72//41
f 105//42 107//42 103//42
f 108//43 96//43 104//43
f 110//44 107//44 106//44
f 78//45 109//45 79//45
f 112//46 114//46 110//46
f 89//47 117//47 115//47
f 118//48 119//48 116//48
f 120//49 113//49 116//49
f 100//50 118//50 101//50
f 6//1 1//1 2//1
f 2//1 3//1 4//1
f 4//1 5//1 6//1
f 6//2 7//2 8//2
f 15//3 16//3 3//3
f 16//4 15//4 14//4
f 14//4 17//4 18//4
f 18//4 19//4 14//4
f 13//5 20//5 17//5
f 20//6 13//6 12//6
f 12//6 21//6 20//6
f 22//6 23//6 20//6
f 12//7 11//7 24//7
f 24//8 11//8 10//8
f 10//8 25//8 26//8
f 26//51 27//51 24//51
f 10//9 9//9 28//9
f 28//10 9//10 8//10
f 8//10 7//10 29//10
f 29//10 30//10 8//10
f 4//11 37//11 31//11
f 32//12 31//12 39//12
f 37//12 38//12 39//12
f 39//12 40//12 32//12
f 40//13 41//13 33//13
f 34//14 33//14 41//14
f 41//14 42//14 43//14
f 43//14 44//14 34//14
f 44//15 45//15 35//15
f 36//16 35//16 47//16
f 45//16 46//16 47//16
f 47//16 48//16 36//16
f 48//17 30//17 29//17
f 18//18 53//18 49//18
f 50//19 49//19 53//19
f 53//19 54//19 55//19
f 55//19 56//19 50//19
f 56//20 57//20 51//20
f 52//21 51//21 57//21
f 57//21 58//21 59//21
f 59//21 60//21 52//21
f 60//22 39//22 38//22
f 54//23 64//23 65//23
f 22//24 66//24 61//24
f 62//25 61//25 66//25
f 66//25 67//25 68//25
f 68//25 69//25 62//25
f 62//26 69//26 70//26
f 64//27 63//27 70//27
f 70//27 71//27 72//27
f 72//27 65//27 64//27
f 80//28 73//28 76//28
f 76//28 77//28 78//28
f 78//28 79//28 80//28
f 80//29 68//29 67//29
f 26//30 81//30 74//30
f 75//31 74//31 81//31
f 81//31 82//31 83//31
f 83//31 84//31 75//31
f 75//32 84//32 77//32
f 46//33 87//33 85//33
f 86//34 85//34 89//34
f 87//34 88//34 89//34
f 89//34 90//34 86//34
f 90//35 83//35 82//35
f 59//36 58//36 95//36
f 92//37 91//37 95//37
f 95//37 96//37 97//37
f 97//37 98//37 92//37
f 98//38 99//38 93//38
f 94//39 93//39 99//39
f 99//39 100//39 101//39
f 101//39 102//39 94//39
f 102//40 43//40 42//40
f 71//41 105//41 103//41
f 104//42 103//42 107//42
f 105//42 106//42 107//42
f 107//42 108//42 104//42
f 108//43 97//43 96//43
f 110//44 111//44 107//44
f 78//45 112//45 109//45
f 110//46 109//46 112//46
f 112//46 113//46 114//46
f 114//46 111//46 110//46
f 89//47 88//47 117//47
f 116//48 115//48 117//48
f 117//48 118//48 116//48
f 119//52 120//52 116//52
f 120//49 114//49 113//49
f 100//50 119//50 118//50
usemtl Material.003
f 12//53 14//53 2//53
f 32//54 29//54 7//54
f 19//55 52//55 37//55
f 17//56 63//56 64//56
f 24//57 74//57 76//57
f 81//58 25//58 30//58
f 59//59 94//59 39//59
f 55//60 96//60 95//60
f 70//61 109//61 110//61
f 77//62 83//62 89//62
f 101//63 87//63 43//63
f 108//64 119//64 100//64
f 2//53 1//53 10//53
f 8//53 9//53 10//53
f 10//53 11//53 12//53
f 12//53 13//53 14//53
f 14//53 15//53 2//53
f 1//53 8//53 10//53
f 10//53 12//53 2//53
f 7//54 6//54 5//54
f 5//54 31//54 7//54
f 32//54 33//54 36//54
f 34//54 35//54 36//54
f 36//54 29//54 32//54
f 7//54 31//54 32//54
f 33//54 34//54 36//54
f 37//55 4//55 3//55
f 3//55 16//55 37//55
f 19//55 49//55 50//55
f 50//55 51//55 52//55
f 52//55 38//55 37//55
f 37//55 16//55 19//55
f 19//55 50//55 52//55
f 64//56 54//56 17//56
f 53//56 18//56 17//56
f 17//56 20//56 23//56
f 23//56 61//56 17//56
f 62//56 63//56 17//56
f 54//56 53//56 17//56
f 17//56 61//56 62//56
f 76//57 73//57 22//57
f 67//57 66//57 22//57
f 22//57 21//57 24//57
f 24//57 27//57 74//57
f 74//57 75//57 76//57
f 73//57 67//57 22//57
f 22//57 24//57 76//57
f 30//58 48//58 47//58
f 47//58 85//58 30//58
f 86//58 82//58 81//58
f 81//58 26//58 25//58
f 25//58 28//58 30//58
f 30//58 85//58 86//58
f 86//58 81//58 30//58
f 41//59 40//59 39//59
f 39//59 60//59 59//59
f 59//59 91//59 92//59
f 92//59 93//59 94//59
f 94//59 42//59 41//59
f 41//59 39//59 94//59
f 59//59 92//59 94//59
f 95//60 58//60 57//60
f 57//60 56//60 55//60
f 55//60 65//60 72//60
f 72//60 103//60 104//60
f 104//60 96//60 55//60
f 95//60 57//60 55//60
f 55//60 72//60 104//60
f 110//61 106//61 105//61
f 105//61 71//61 70//61
f 70//61 69//61 68//61
f 68//61 80//61 70//61
f 79//61 109//61 70//61
f 110//61 105//61 70//61
f 70//61 80//61 79//61
f 89//62 115//62 116//62
f 116//62 113//62 112//62
f 112//62 78//62 77//62
f 77//62 84//62 83//62
f 83//62 90//62 89//62
f 89//62 116//62 112//62
f 112//62 77//62 89//62
f 45//63 44//63 43//63
f 43//63 102//63 101//63
f 101//63 118//63 87//63
f 117//63 88//63 87//63
f 87//63 46//63 45//63
f 45//63 43//63 87//63
f 118//63 117//63 87//63
f 100//64 99//64 98//64
f 98//64 97//64 100//64
f 108//64 107//64 111//64
f 111//64 114//64 120//64
f 120//64 119//64 108//64
f 100//64 97//64 108//64
f 108//64 111//64 120//64
